<?xml version="1.0" encoding="UTF-8" standalone="no"?>
<!-- Created with Inkscape (http://www.inkscape.org/) -->

<svg
   width="210mm"
   height="297mm"
   viewBox="0 0 210 297"
   version="1.1"
   id="svg5"
   inkscape:version="1.2.2 (732a01da63, 2022-12-09)"
   sodipodi:docname="designs.svg"
   xmlns:inkscape="http://www.inkscape.org/namespaces/inkscape"
   xmlns:sodipodi="http://sodipodi.sourceforge.net/DTD/sodipodi-0.dtd"
   xmlns="http://www.w3.org/2000/svg"
   xmlns:svg="http://www.w3.org/2000/svg">
  <sodipodi:namedview
     id="namedview7"
     pagecolor="#ffffff"
     bordercolor="#666666"
     borderopacity="1.0"
     inkscape:showpageshadow="2"
     inkscape:pageopacity="0.0"
     inkscape:pagecheckerboard="0"
     inkscape:deskcolor="#d1d1d1"
     inkscape:document-units="mm"
     showgrid="false"
     inkscape:zoom="1.6160073"
     inkscape:cx="317.13966"
     inkscape:cy="332.30048"
     inkscape:window-width="1920"
     inkscape:window-height="1057"
     inkscape:window-x="-8"
     inkscape:window-y="-8"
     inkscape:window-maximized="1"
     inkscape:current-layer="layer1" />
  <defs
     id="defs2" />
  <g
     inkscape:label="Layer 1"
     inkscape:groupmode="layer"
     id="layer1">
    <g
       id="g1418"
       transform="matrix(0.21771527,0.02677726,-0.02425475,0.24035774,59.947116,68.224443)"
       inkscape:label=" Mouse Normal"
       inkscape:export-filename="Mouse_normal.svg"
       inkscape:export-xdpi="26.083912"
       inkscape:export-ydpi="26.083912">
      <path
         id="path1289"
         style="color:#000000;display:inline;fill:#f7d900;fill-opacity:1;fill-rule:evenodd;stroke-width:0.80201;stroke-linecap:round;stroke-linejoin:round;-inkscape-stroke:none;paint-order:fill markers stroke"
         inkscape:label="inner"
         d="m 86.53125,77.611328 c -7.224105,0.09204 -14.451682,-0.07483 -21.673828,0.101563 -4.412412,0.505439 -7.875329,4.902522 -7.443321,9.303125 0.02798,6.961731 -0.314562,11.752314 -0.170032,18.711734 0.366487,3.47462 4.399571,5.91304 7.643898,4.60841 2.647447,-0.88858 4.144339,-3.83793 3.81118,-6.52677 l 0.242262,-14.647281 c 6.255956,-0.02181 12.515692,0.06556 18.769107,-0.07329 3.452185,-0.386275 5.83118,-4.367867 4.623471,-7.604448 -0.818086,-2.395273 -3.301588,-3.969365 -5.802734,-3.873047 z"
         sodipodi:nodetypes="sccccccccss" />
      <path
         style="color:#000000;display:inline;fill:#000000;fill-rule:evenodd;stroke-linecap:round;stroke-linejoin:round;-inkscape-stroke:none;paint-order:fill markers stroke"
         d="m 62.455078,76.080078 c -3.557042,0 -6.477566,2.956066 -6.513672,6.513672 l -0.242262,23.87033 c -0.01682,1.65712 1.343146,3 3,3 1.656854,0 2.983182,-1.34288 3,-3 l 0.242262,-23.87033 c 0.0034,-0.336881 0.176844,-0.513672 0.513672,-0.513672 H 88.5 c 1.656854,0 3,-1.343146 3,-3 0,-1.656854 -1.343146,-3 -3,-3 z"
         id="path1411"
         inkscape:label="outer"
         transform="translate(3.2864586e-6)"
         sodipodi:nodetypes="sssssssssss" />
    </g>
    <g
       id="g1424"
       transform="matrix(0.21771527,0.02677726,-0.02425475,0.24035774,141.91381,68.224443)"
       inkscape:label=" Mouse Choice"
       inkscape:export-filename="Mouse_choice.svg"
       inkscape:export-xdpi="26.083912"
       inkscape:export-ydpi="26.083912">
      <circle
         style="fill:#ff0000;fill-opacity:1;fill-rule:evenodd;stroke:none;stroke-width:0.264583px;stroke-linecap:butt;stroke-linejoin:miter;stroke-opacity:1"
         id="path1426"
         cx="156.29243"
         cy="94.933174"
         r="5.3255196"
         transform="rotate(-6.3568721,114.70413,831.88383)" />
      <path
         id="path1289-8"
         style="color:#000000;display:inline;fill:#f7d900;fill-opacity:1;fill-rule:evenodd;stroke-width:0.1846;stroke-linecap:round;stroke-linejoin:round;-inkscape-stroke:none;paint-order:fill markers stroke"
         inkscape:label="inner"
         d="m 158.23832,88.369503 c -1.57503,-0.171319 -3.14454,-0.404962 -4.72119,-0.555954 -0.9729,0.0033 -1.83348,0.967479 -1.84617,2.036766 -0.16276,1.674055 -0.35353,2.816337 -0.49086,4.492957 -0.005,0.844966 0.81443,1.539054 1.55241,1.31235 0.59795,-0.142686 0.99538,-0.811502 0.98806,-1.466707 l 0.40801,-3.5141 c 1.36255,0.162275 2.72327,0.350894 4.0881,0.484969 0.76096,-4.04e-4 1.37548,-0.893707 1.19105,-1.703984 -0.12002,-0.597628 -0.62253,-1.042475 -1.16941,-1.086298 z"
         sodipodi:nodetypes="sccccccccss"
         transform="matrix(4.5368471,-0.50543134,0.45781797,4.1094616,-675.07563,-208.63804)" />
      <path
         style="color:#000000;display:inline;fill:#000000;fill-rule:evenodd;stroke-width:0.230172;stroke-linecap:round;stroke-linejoin:round;-inkscape-stroke:none;paint-order:fill markers stroke"
         d="m 153.03371,87.356761 c -0.77442,-0.09525 -1.48196,0.537062 -1.57611,1.391194 l -0.63171,5.730931 c -0.0439,0.397851 0.21965,0.757039 0.58038,0.801405 0.36072,0.04437 0.68205,-0.24289 0.72591,-0.640741 l 0.63171,-5.730932 c 0.009,-0.08088 0.051,-0.118729 0.12429,-0.10971 l 5.67038,0.697412 c 0.36072,0.04437 0.68572,-0.242504 0.72591,-0.640742 0.0402,-0.398238 -0.21966,-0.757039 -0.58038,-0.801405 z"
         id="path1411-8"
         inkscape:label="outer"
         sodipodi:nodetypes="sssssssssss"
         transform="matrix(4.5368471,-0.50543134,0.45781797,4.1094616,-675.07563,-208.63804)" />
    </g>
    <g
       id="g1435"
       transform="matrix(0.21771527,0.02677726,-0.02425475,0.24035774,88.427069,122.86891)"
       inkscape:label=" Mouse Press"
       inkscape:export-filename="Mouse_press.svg"
       inkscape:export-xdpi="26.083912"
       inkscape:export-ydpi="26.083912">
      <circle
         style="fill:#0067ff;fill-opacity:1;fill-rule:evenodd;stroke:#000000;stroke-width:1.465;stroke-linecap:butt;stroke-linejoin:miter;stroke-dasharray:none;stroke-opacity:1"
         id="circle1429"
         cx="53.204048"
         cy="89.095367"
         r="5.3255196"
         transform="rotate(-6.3568721)" />
      <path
         id="path1289-1"
         style="color:#000000;display:inline;fill:#f7d900;fill-opacity:1;fill-rule:evenodd;stroke-width:0.80201;stroke-linecap:round;stroke-linejoin:round;-inkscape-stroke:none;paint-order:fill markers stroke"
         inkscape:label="inner"
         d="m 71.987144,63.017921 c -7.224103,0.09204 -14.451682,-0.07483 -21.673829,0.101564 -4.412424,0.505299 -7.875325,4.90252 -7.443318,9.303123 0.02798,6.961731 -0.314565,11.752317 -0.170033,18.711734 0.366425,3.47463 4.39957,5.913043 7.643896,4.608412 2.647448,-0.888582 4.14434,-3.83793 3.811184,-6.526772 l 0.242261,-14.64728 c 6.255955,-0.02181 12.515691,0.06556 18.769107,-0.07329 3.452183,-0.386274 5.831178,-4.367864 4.62347,-7.604448 -0.818085,-2.395271 -3.301587,-3.969364 -5.802734,-3.873046 z"
         sodipodi:nodetypes="sccccccccss" />
      <path
         style="color:#000000;display:inline;fill:#000000;fill-rule:evenodd;stroke-width:1;stroke-linecap:round;stroke-linejoin:round;-inkscape-stroke:none;paint-order:fill markers stroke"
         d="m 47.910977,61.486669 c -3.557041,-9e-6 -6.477567,2.956066 -6.51367,6.513675 l -0.242262,23.870328 c -0.01684,1.657122 1.343146,3.000001 2.999998,3.000001 1.656858,1.6e-5 2.983184,-1.34288 3,-2.999998 l 0.242261,-23.870333 c 0.0034,-0.336872 0.176842,-0.513669 0.513671,-0.513671 l 26.044926,10e-7 c 1.656854,1.7e-5 2.999998,-1.343146 3,-3.000002 1.5e-5,-1.656857 -1.343146,-3 -3.000002,-3 z"
         id="path1411-1"
         inkscape:label="outer"
         sodipodi:nodetypes="sssssssssss" />
    </g>
  </g>
</svg>
