<?xml version="1.0" encoding="UTF-8" standalone="no"?>
<!-- Created with Inkscape (http://www.inkscape.org/) -->

<svg
   width="8.6196289mm"
   height="8.3517609mm"
   viewBox="0 0 8.6196289 8.3517609"
   version="1.1"
   id="svg5"
   inkscape:version="1.2.2 (732a01da63, 2022-12-09)"
   sodipodi:docname="designs.svg"
   xmlns:inkscape="http://www.inkscape.org/namespaces/inkscape"
   xmlns:sodipodi="http://sodipodi.sourceforge.net/DTD/sodipodi-0.dtd"
   xmlns="http://www.w3.org/2000/svg"
   xmlns:svg="http://www.w3.org/2000/svg">
  <sodipodi:namedview
     id="namedview7"
     pagecolor="#ffffff"
     bordercolor="#666666"
     borderopacity="1.0"
     inkscape:showpageshadow="2"
     inkscape:pageopacity="0.0"
     inkscape:pagecheckerboard="0"
     inkscape:deskcolor="#d1d1d1"
     inkscape:document-units="mm"
     showgrid="false"
     inkscape:zoom="0.80800365"
     inkscape:cx="327.35001"
     inkscape:cy="289.60265"
     inkscape:window-width="1920"
     inkscape:window-height="1057"
     inkscape:window-x="-8"
     inkscape:window-y="-8"
     inkscape:window-maximized="1"
     inkscape:current-layer="layer1" />
  <defs
     id="defs2" />
  <g
     inkscape:label="Layer 1"
     inkscape:groupmode="layer"
     id="layer1"
     transform="translate(-95.154078,-138.92114)">
    <g
       id="g1435"
       transform="matrix(0.21771527,0.02677726,-0.02425475,0.24035774,88.427069,122.86891)"
       inkscape:label=" Mouse Press"
       inkscape:export-filename="Mouse_press.svg"
       inkscape:export-xdpi="26.083912"
       inkscape:export-ydpi="26.083912">
      <circle
         style="fill:#0067ff;fill-opacity:1;fill-rule:evenodd;stroke:#000000;stroke-width:1.465;stroke-linecap:butt;stroke-linejoin:miter;stroke-dasharray:none;stroke-opacity:1"
         id="circle1429"
         cx="53.204048"
         cy="89.095367"
         r="5.3255196"
         transform="rotate(-6.3568721)" />
      <path
         id="path1289-1"
         style="color:#000000;display:inline;fill:#f7d900;fill-opacity:1;fill-rule:evenodd;stroke-width:0.80201;stroke-linecap:round;stroke-linejoin:round;-inkscape-stroke:none;paint-order:fill markers stroke"
         inkscape:label="inner"
         d="m 71.987144,63.017921 c -7.224103,0.09204 -14.451682,-0.07483 -21.673829,0.101564 -4.412424,0.505299 -7.875325,4.90252 -7.443318,9.303123 0.02798,6.961731 -0.314565,11.752317 -0.170033,18.711734 0.366425,3.47463 4.39957,5.913043 7.643896,4.608412 2.647448,-0.888582 4.14434,-3.83793 3.811184,-6.526772 l 0.242261,-14.64728 c 6.255955,-0.02181 12.515691,0.06556 18.769107,-0.07329 3.452183,-0.386274 5.831178,-4.367864 4.62347,-7.604448 -0.818085,-2.395271 -3.301587,-3.969364 -5.802734,-3.873046 z"
         sodipodi:nodetypes="sccccccccss" />
      <path
         style="color:#000000;display:inline;fill:#000000;fill-rule:evenodd;stroke-width:1;stroke-linecap:round;stroke-linejoin:round;-inkscape-stroke:none;paint-order:fill markers stroke"
         d="m 47.910977,61.486669 c -3.557041,-9e-6 -6.477567,2.956066 -6.51367,6.513675 l -0.242262,23.870328 c -0.01684,1.657122 1.343146,3.000001 2.999998,3.000001 1.656858,1.6e-5 2.983184,-1.34288 3,-2.999998 l 0.242261,-23.870333 c 0.0034,-0.336872 0.176842,-0.513669 0.513671,-0.513671 l 26.044926,10e-7 c 1.656854,1.7e-5 2.999998,-1.343146 3,-3.000002 1.5e-5,-1.656857 -1.343146,-3 -3.000002,-3 z"
         id="path1411-1"
         inkscape:label="outer"
         sodipodi:nodetypes="sssssssssss" />
    </g>
  </g>
</svg>
